<svg width="141" height="23" viewBox="0 0 299 48" fill="none" class=" " aria-label="뱅크샐러드">
  <title id="BdsColorIllustrationSettingBanksaladSignature1Svg-title">뱅크샐러드</title>
  <g clip-path="url(#illustrationsettingbanksaladsignature1_clip0_3_25197)">
    <g clip-path="url(#illustrationsettingbanksaladsignature1_clip1_3_25197)">
      <path
        d="m24.493 22.181-5.763-3.908a.465.465 0 0 0-.725.353l-.504 6.945-.505 6.945a.466.466 0 0 0 .668.454l6.265-3.037 6.266-3.037a.465.465 0 0 0 .057-.804l-5.759-3.91Z"
        fill="#F582C6"></path>
      <path
        d="M48.182 23.672h-8.157a.465.465 0 0 0-.468.449c-.238 8.195-6.979 14.79-15.232 14.79S9.331 32.316 9.093 24.12a.466.466 0 0 0-.468-.45H.468a.468.468 0 0 0-.468.474c.252 13.198 11.067 23.857 24.325 23.857s24.07-10.659 24.325-23.857a.468.468 0 0 0-.468-.473Z"
        fill="#00D278"></path>
      <path d="M15.585 13.535a6.767 6.767 0 1 0 0-13.535 6.767 6.767 0 0 0 0 13.535Z" fill="#09F"></path>
      <path
        d="M31.498 21.891a.47.47 0 0 0 .658.05l8.824-7.592a.47.47 0 0 0 .05-.658l-7.59-8.825a.47.47 0 0 0-.658-.05l-8.826 7.593a.47.47 0 0 0-.05.658l7.592 8.824Z"
        fill="#00D0CE"></path>
      <path
        d="M80.359 16.01c-2.883 0-5.574.89-7.766 2.434V6.434a.466.466 0 0 0-.466-.466h-5.053a.466.466 0 0 0-.466.465V41.55c0 .256.21.465.466.465h5.053a.466.466 0 0 0 .466-.465v-1.66a13.154 13.154 0 0 0 7.766 2.536c7.12 0 13.539-5.476 13.539-13.353 0-7.876-6.82-13.064-13.54-13.064Zm-.096 20.508c-3.99 0-7.317-3.239-7.317-7.38 0-4.14 3.325-7.22 7.317-7.22 3.713 0 7.482 2.866 7.482 7.22.003 4.353-3.545 7.38-7.482 7.38ZM122.517 16.629h-5.053a.466.466 0 0 0-.466.465v1.522c-2.357-1.673-5.218-2.607-8.066-2.607-7.22 0-13.239 5.572-13.239 13.064 0 7.493 6.019 13.352 13.239 13.352a13.83 13.83 0 0 0 8.066-2.592v1.716c0 .257.209.466.466.466h5.053a.466.466 0 0 0 .466-.466V17.094a.466.466 0 0 0-.466-.465Zm-13.356 19.889c-3.99 0-7.317-3.239-7.317-7.38 0-4.14 3.324-7.22 7.317-7.22 3.713 0 7.482 2.866 7.482 7.22 0 4.352-3.546 7.38-7.482 7.38ZM140.937 16.01c-2.155 0-4.75.628-7.48 2.606v-1.522a.466.466 0 0 0-.465-.465h-5.054a.466.466 0 0 0-.465.465V41.55c0 .257.209.466.465.466h5.054a.466.466 0 0 0 .465-.466V27.93c0-4.192 3.407-6.245 6.141-6.245 2.681 0 5.005 2.065 5.005 5.935v13.93c0 .257.209.466.466.466h5.053a.466.466 0 0 0 .466-.466V27.206c-.003-7.017-3.457-11.197-9.651-11.197ZM166.897 28.692l10.505-11.28a.465.465 0 0 0-.341-.783h-6.717a.462.462 0 0 0-.346.153L160.72 27.1V6.436a.466.466 0 0 0-.466-.466h-5.053a.466.466 0 0 0-.466.466V41.55c0 .256.209.465.466.465h5.053a.466.466 0 0 0 .466-.465V30.082l10.104 11.77a.467.467 0 0 0 .353.163h6.537a.466.466 0 0 0 .348-.775l-11.165-12.548Z"
        fill="#2A2B34"></path>
      <path
        d="m191.935 27.215-4.319-1.114c-1.877-.403-2.953-1.33-2.953-2.537 0-1.666 1.517-2.874 3.608-2.874 2.036 0 3.575 1.196 3.661 2.843l.003.057h6.217v-.06c-.012-2.05-.718-3.771-2.096-5.116-1.788-1.745-4.762-2.789-7.958-2.789-5.48 0-9.938 3.438-9.938 7.663 0 4.054 2.396 6.56 7.54 7.888l3.572.89c1.604.354 3.241.947 3.241 2.649 0 1.79-1.839 3.041-4.472 3.041-2.998 0-4.448-1.762-4.528-3.4l-.002-.057h-6.1l.003.063c.211 5.495 5.691 8.46 10.74 8.46 2.78 0 5.504-.764 7.477-2.096 1.544-1.042 3.385-2.931 3.385-6.014 0-4.99-4.436-6.84-7.081-7.497ZM227.29 16.629h-5.053a.466.466 0 0 0-.466.465v1.522c-2.357-1.673-5.219-2.607-8.068-2.607-7.221 0-13.239 5.572-13.239 13.064 0 7.493 6.018 13.352 13.239 13.352 2.945 0 5.766-.938 8.068-2.592v1.716c0 .257.209.466.466.466h5.053a.466.466 0 0 0 .466-.466V17.094a.466.466 0 0 0-.466-.465Zm-13.357 19.889c-3.989 0-7.316-3.239-7.316-7.38 0-4.14 3.327-7.22 7.316-7.22 3.714 0 7.483 2.866 7.483 7.22 0 4.352-3.546 7.38-7.483 7.38ZM238.335 5.968h-5.394a.465.465 0 0 0-.465.465V41.55c0 .256.208.465.465.465h5.394a.466.466 0 0 0 .466-.465V6.433a.466.466 0 0 0-.466-.465ZM268.551 16.629h-5.053a.465.465 0 0 0-.465.465v1.522c-2.358-1.673-5.219-2.607-8.066-2.607-7.221 0-13.239 5.572-13.239 13.064 0 7.493 6.018 13.352 13.239 13.352 2.945 0 5.766-.938 8.066-2.592v1.716c0 .257.208.466.465.466h5.053a.466.466 0 0 0 .466-.466V17.094a.466.466 0 0 0-.466-.465Zm-13.356 19.889c-3.992 0-7.317-3.239-7.317-7.38 0-4.14 3.325-7.22 7.317-7.22 3.713 0 7.482 2.866 7.482 7.22 0 4.352-3.548 7.38-7.482 7.38ZM298.534 5.968h-5.053a.466.466 0 0 0-.466.465v12.01a13.46 13.46 0 0 0-7.766-2.434c-6.719 0-13.539 5.188-13.539 13.064 0 7.877 6.419 13.353 13.539 13.353a13.15 13.15 0 0 0 7.766-2.535v1.659c0 .256.209.465.466.465h5.053a.466.466 0 0 0 .466-.465V6.433a.466.466 0 0 0-.466-.465Zm-13.191 30.55c-3.935 0-7.483-3.027-7.483-7.38 0-4.354 3.769-7.22 7.483-7.22 3.99 0 7.317 3.08 7.317 7.22 0 4.141-3.325 7.38-7.317 7.38Z"
        fill="#2A2B34"></path>
    </g>
  </g>
  <defs>
    <clipPath id="illustrationsettingbanksaladsignature1_clip0_3_25197">
      <path fill="#fff" d="M0 0h299v48H0z"></path>
    </clipPath>
    <clipPath id="illustrationsettingbanksaladsignature1_clip1_3_25197">
      <path fill="#fff" d="M0 0h299v48H0z"></path>
    </clipPath>
  </defs>
</svg>